HIERARCHY
ROOT Hips
{
	OFFSET 0.000000 0.000000 0.000000
	CHANNELS 6 Xposition Yposition Zposition Zrotation Yrotation Xrotation 
	JOINT LeftUpLeg_virtual
	{
		OFFSET 0.000000 0.000000 0.000000
		CHANNELS 3 Zrotation Yrotation Xrotation
		JOINT LeftUpLeg
		{
			OFFSET 10.205400 -3.823500 0.155100
			CHANNELS 3 Zrotation Yrotation Xrotation
			JOINT LeftLeg
			{
				OFFSET 0.708757 -12.982077 0.567790
				CHANNELS 3 Zrotation Yrotation Xrotation
				JOINT LeftFoot
				{
					OFFSET -0.708756 -10.717838 -2.184338
					CHANNELS 3 Zrotation Yrotation Xrotation
					JOINT LeftToeBase
					{
						OFFSET 0.108149 -7.191104 7.560241
						CHANNELS 3 Zrotation Yrotation Xrotation
						End Site
						{
							OFFSET 0.000000 0.000000 0.000000
						}
					}
				}
			}
		}
	}
	JOINT RightUpLeg_virtual
	{
		OFFSET 0.000000 0.000000 0.000000
		CHANNELS 3 Zrotation Yrotation Xrotation
		JOINT RightUpLeg
		{
			OFFSET -10.205400 -3.823500 0.005500
			CHANNELS 3 Zrotation Yrotation Xrotation
			JOINT RightLeg
			{
				OFFSET -0.708756 -12.982134 0.610632
				CHANNELS 3 Zrotation Yrotation Xrotation
				JOINT RightFoot
				{
					OFFSET 0.708754 -10.717769 -1.945823
					CHANNELS 3 Zrotation Yrotation Xrotation
					JOINT RightToeBase
					{
						OFFSET -0.108140 -7.191069 7.372968
						CHANNELS 3 Zrotation Yrotation Xrotation
						End Site
						{
							OFFSET 0.000000 0.000000 0.000000
						}
					}
				}
			}
		}
	}
	JOINT Spine_virtual
	{
		OFFSET 0.000000 0.000000 0.000000
		CHANNELS 3 Zrotation Yrotation Xrotation
		JOINT Spine
		{
			OFFSET 0.000000 6.876099 0.125700
			CHANNELS 3 Zrotation Yrotation Xrotation
			JOINT Spine1
			{
				OFFSET 0.000000 8.022060 0.146608
				CHANNELS 3 Zrotation Yrotation Xrotation
				JOINT Spine2
				{
					OFFSET 0.000000 9.168068 0.167552
					CHANNELS 3 Zrotation Yrotation Xrotation
					JOINT Neck_virtual
					{
						OFFSET 0.000000 0.000000 0.000000
						CHANNELS 3 Zrotation Yrotation Xrotation
						JOINT Neck
						{
							OFFSET 0.000000 10.314075 0.188496
							CHANNELS 3 Zrotation Yrotation Xrotation
							JOINT Head
							{
								OFFSET 0.000000 7.643700 -2.377400
								CHANNELS 3 Zrotation Yrotation Xrotation
								End Site
								{
									OFFSET 0.000000 0.000000 0.000000
								}
							}
						}
					}
					JOINT LeftShoulder_virtual
					{
						OFFSET 0.000000 0.000000 0.000000
						CHANNELS 3 Zrotation Yrotation Xrotation
						JOINT LeftShoulder
						{
							OFFSET 4.392200 8.824978 0.174984
							CHANNELS 3 Zrotation Yrotation Xrotation
							JOINT LeftArm
							{
								OFFSET 8.771219 -2.981674 -0.026999
								CHANNELS 3 Zrotation Yrotation Xrotation
								JOINT LeftForeArm
								{
									OFFSET 8.512804 0.000000 -0.000000
									CHANNELS 3 Zrotation Yrotation Xrotation
									JOINT LeftHand
									{
										OFFSET 18.484802 0.000000 -0.000000
										CHANNELS 3 Zrotation Yrotation Xrotation
										End Site
										{
											OFFSET 0.000000 0.000000 0.000000
										}
									}
								}
							}
						}
					}
					JOINT RightShoulder_virtual
					{
						OFFSET 0.000000 0.000000 0.000000
						CHANNELS 3 Zrotation Yrotation Xrotation
						JOINT RightShoulder
						{
							OFFSET -4.392200 8.824993 0.141379
							CHANNELS 3 Zrotation Yrotation Xrotation
							JOINT RightArm
							{
								OFFSET -8.771282 -2.981682 -0.094208
								CHANNELS 3 Zrotation Yrotation Xrotation
								JOINT RightForeArm
								{
									OFFSET -8.494598 0.000000 0.000000
									CHANNELS 3 Zrotation Yrotation Xrotation
									JOINT RightHand
									{
										OFFSET -18.483803 0.000000 0.000001
										CHANNELS 3 Zrotation Yrotation Xrotation
										End Site
										{
											OFFSET 0.000000 0.000000 0.000000
										}
									}
								}
							}
						}
					}
				}
			}
		}
	}
}
MOTION
Frames: 14
Frame Time: 0.033333
29.578468 36.005699 -9.755875 179.995743 2.776722 -179.883304 -0.970108 -1.597497 9.806577 -14.080686 -5.518181 -25.914602 19.358061 3.019532 25.904840 -3.111728 -3.909819 3.749744 0.000000 0.000000 0.000000 3.482060 0.988555 9.953144 -3.789707 4.275348 -32.235290 -3.117935 4.203893 51.431816 7.990517 8.767353 9.090810 0.000000 0.000000 0.000000 2.959026 1.578562 -0.010201 3.948275 4.986177 -1.406355 1.391257 -4.155494 13.331659 0.015744 0.040866 0.002608 1.244003 -2.945530 16.333421 -0.985671 -6.149277 7.158126 0.000000 0.000000 0.000000 2.250049 -2.109084 12.665018 -4.350994 -11.463305 4.442935 -35.582694 21.534326 35.473257 -44.975228 -79.322648 43.840174 0.000000 0.000000 0.000000 -0.542514 -0.969967 13.135325 32.282336 2.964230 -3.721068 45.908550 -14.787197 -2.846171 -0.863170 34.639748 -4.191266 0.000000 0.000000 0.000000 
29.447723 36.077225 -10.963031 179.985757 3.040999 -179.786425 -1.005475 -1.520886 9.553802 -14.587259 -3.248819 -23.122685 18.774672 3.589877 25.906499 -3.746878 -3.990979 1.820108 0.000000 0.000000 0.000000 3.510523 1.200849 9.461369 -3.677044 4.970219 -35.654045 -3.014460 4.488744 47.071622 7.917450 9.388340 9.692315 0.000000 0.000000 0.000000 2.988044 1.796556 -0.326589 4.171229 4.852782 -1.407887 1.341571 -4.171484 13.411134 0.022940 -0.078299 -0.015197 1.221927 -3.010342 16.465737 -1.167439 -6.186550 7.304137 0.000000 0.000000 0.000000 2.232659 -2.247091 12.759317 -4.285857 -11.685025 4.418555 -35.236154 20.077981 34.281355 -46.923628 -79.294316 45.473091 0.000000 0.000000 0.000000 -0.642411 -1.092605 13.144037 32.512684 2.985465 -3.903110 45.818603 -14.456246 -3.137490 -0.628131 34.374699 -4.095183 0.000000 0.000000 0.000000 
29.325199 36.090195 -12.108079 -179.980676 3.150815 -179.654807 -0.831003 -1.570349 9.302847 -14.746582 -1.502303 -20.562993 17.900213 4.801915 26.055005 -4.312097 -4.378415 0.637429 0.000000 0.000000 0.000000 3.818183 1.185997 8.965327 -3.606865 5.643677 -38.236598 -3.281300 4.579787 40.539799 8.398497 9.657401 11.296084 0.000000 0.000000 0.000000 3.224397 1.660736 -0.584106 4.561227 4.754408 -1.505904 1.194542 -4.311327 13.508757 0.010946 0.012604 -0.006933 1.070505 -3.054722 16.588540 -1.384364 -6.094760 7.458637 0.000000 0.000000 0.000000 2.130125 -2.244992 12.791279 -4.346433 -11.645974 4.566555 -34.791303 18.632133 33.236537 -49.079267 -79.442791 47.394041 0.000000 0.000000 0.000000 -0.777764 -1.058470 13.264294 32.711361 3.134135 -4.002970 45.692859 -14.212262 -3.725416 -0.395110 33.677419 -3.988303 0.000000 0.000000 0.000000 
29.248165 36.029388 -13.257100 -179.868565 3.080341 -179.629904 -0.615780 -1.320666 9.230489 -14.881389 0.211687 -18.443083 17.617223 5.755680 26.578981 -5.195352 -5.471074 -0.570589 0.000000 0.000000 0.000000 4.328871 1.209481 8.580382 -3.538212 6.333246 -40.108172 -3.812971 4.228080 32.944024 9.198945 9.451197 13.593982 0.000000 0.000000 0.000000 3.661691 1.483660 -0.451600 5.099804 4.738436 -1.841555 1.014872 -4.361047 13.495621 -0.008400 0.092210 0.035297 0.862675 -2.997488 16.831155 -1.607834 -5.899940 7.640824 0.000000 0.000000 0.000000 1.846720 -2.233236 12.861317 -4.494339 -11.450970 4.758745 -34.268784 17.306738 32.520525 -51.137876 -79.606545 49.590578 0.000000 0.000000 0.000000 -0.981161 -0.995619 13.439976 32.899461 3.322654 -4.013843 45.522794 -14.045922 -4.458097 -0.310801 32.916290 -4.048014 0.000000 0.000000 0.000000 
29.222830 35.868141 -14.436094 -179.825412 2.759614 -179.567791 -0.217858 -0.934644 9.359493 -14.859807 1.302466 -16.558303 17.214206 5.850787 27.250027 -5.572796 -6.389648 -2.001021 0.000000 0.000000 0.000000 4.890538 1.325964 8.314335 -3.371532 6.839737 -41.586809 -4.536851 3.783757 25.763622 10.105600 8.857292 15.765808 0.000000 0.000000 0.000000 4.214986 1.470247 -0.184188 5.742575 4.836345 -2.381225 0.762820 -4.431883 13.433729 -0.089679 0.063774 0.071511 0.523039 -3.056436 16.883575 -2.086779 -5.854745 7.913105 0.000000 0.000000 0.000000 1.666497 -2.348491 13.031801 -4.657185 -11.240198 4.892657 -33.587189 16.266145 32.006659 -53.697195 -79.467366 52.211387 0.000000 0.000000 0.000000 -1.144093 -1.123175 13.482843 33.129546 3.379620 -3.879861 45.430167 -14.106520 -5.253098 -0.245852 32.299299 -4.126198 0.000000 0.000000 0.000000 
29.242895 35.637672 -15.725359 -179.698193 2.139986 -179.339526 0.187837 -0.580411 9.629036 -14.798413 1.765526 -14.952766 16.709902 5.700243 28.226653 -5.767851 -7.267575 -3.519868 0.000000 0.000000 0.000000 5.419579 1.421482 8.176720 -2.992152 7.428602 -42.744581 -5.111463 2.956948 19.984602 10.672145 8.004188 17.499085 0.000000 0.000000 0.000000 4.889197 1.665209 0.006449 6.520601 4.788144 -3.222846 0.507257 -4.683156 13.486087 -0.011148 0.000193 0.091026 0.263236 -3.132736 16.835279 -2.331213 -5.577249 8.043951 0.000000 0.000000 0.000000 1.310470 -2.506028 12.995914 -4.872846 -10.872489 5.043980 -32.914227 15.542473 32.108774 -55.545608 -79.232790 54.555532 0.000000 0.000000 0.000000 -1.583182 -1.285490 13.455817 33.323967 3.456537 -3.629355 45.413392 -14.380813 -5.857578 -0.088666 31.932698 -4.102878 0.000000 0.000000 0.000000 
29.345539 35.371078 -17.149010 -179.602857 1.420285 -179.182937 0.571854 -0.301077 10.010763 -14.547837 1.677851 -13.424263 16.238749 5.363666 29.497511 -5.852153 -7.843377 -4.858861 0.000000 0.000000 0.000000 5.771597 1.318302 8.142796 -2.985635 8.296755 -43.430280 -5.396553 4.260094 14.843184 11.832887 7.828652 21.110544 0.000000 0.000000 0.000000 5.544179 1.605291 0.106899 7.383464 4.642474 -4.087574 0.285131 -4.920353 13.568249 -0.048588 -0.013134 0.071842 -0.079556 -3.330350 16.794914 -2.782150 -5.493586 8.335753 0.000000 0.000000 0.000000 0.998943 -2.661574 13.022454 -5.067200 -10.472073 5.337659 -32.183216 14.930227 32.804477 -56.015505 -79.037822 55.499003 0.000000 0.000000 0.000000 -1.792068 -1.520772 13.425821 33.553250 3.503870 -3.378233 45.630523 -14.850233 -6.551106 -0.259220 31.735033 -4.416235 0.000000 0.000000 0.000000 
29.497856 35.119003 -18.649210 -179.690393 0.714308 -179.210462 1.119872 -0.568974 10.290531 -13.819925 0.809680 -12.070615 15.284143 3.516327 31.103814 -6.574466 -8.863661 -5.055692 0.000000 0.000000 0.000000 6.251463 1.387799 8.080335 -4.549537 9.835588 -43.452424 -6.495087 5.548350 12.594498 14.143799 8.736872 23.309600 0.000000 0.000000 0.000000 5.978817 1.406448 0.406066 8.177031 4.454349 -4.979483 0.060525 -5.102756 13.301980 -0.044808 0.008146 0.184058 -0.238546 -3.534288 16.785005 -3.008130 -5.198188 8.617922 0.000000 0.000000 0.000000 0.852872 -2.847611 13.042504 -5.234867 -10.000669 5.616739 -31.656451 14.491689 33.809143 -56.326320 -78.685425 56.386019 0.000000 0.000000 0.000000 -2.051236 -1.701364 13.493349 33.855284 3.503918 -3.029222 46.022713 -15.520364 -7.285589 -0.257465 31.697682 -4.570995 0.000000 0.000000 0.000000 
29.702353 34.950871 -20.183840 -179.797053 -0.295946 -179.330605 1.571677 -0.871446 10.491988 -12.767825 -0.448455 -10.842164 13.950670 1.213892 32.900574 -7.604085 -9.636000 -4.173138 0.000000 0.000000 0.000000 6.205704 1.847434 8.201739 -5.191368 10.388757 -42.417531 -6.874027 6.535985 13.529326 14.755965 8.797507 23.074262 0.000000 0.000000 0.000000 6.285693 1.188815 0.594900 9.052933 4.201733 -5.830072 -0.047844 -5.301218 13.230292 -0.045735 0.012222 0.044132 -0.309172 -3.858166 17.066160 -3.276835 -4.998566 9.065392 0.000000 0.000000 0.000000 0.882440 -3.182375 13.156654 -5.370437 -9.490942 5.972085 -31.436717 14.145198 34.854343 -55.624907 -78.221232 56.181489 0.000000 0.000000 0.000000 -2.233170 -1.993159 13.629946 34.144614 3.394041 -2.732596 46.485537 -16.116811 -8.325705 -0.346166 31.687792 -4.851370 0.000000 0.000000 0.000000 
29.934731 34.907246 -21.691757 -179.815344 -1.550463 -179.930078 2.053205 -0.928497 10.503602 -11.404112 -1.296628 -10.000200 12.715058 -0.466916 35.159416 -9.086985 -10.130992 -2.027926 0.000000 0.000000 0.000000 6.001321 1.963489 8.704325 -5.619487 11.325519 -40.918932 -6.499642 7.118508 16.409902 14.335578 8.714770 21.571496 0.000000 0.000000 0.000000 6.565115 1.191915 1.159467 9.984271 3.883537 -6.522574 -0.123880 -5.548355 13.362249 -0.006702 0.003116 -0.015592 -0.234496 -4.196195 17.170028 -3.457639 -4.756590 9.382253 0.000000 0.000000 0.000000 1.041477 -3.319816 13.273358 -5.501109 -9.197588 6.007853 -31.468994 13.888865 35.878181 -53.733856 -77.559339 55.050157 0.000000 0.000000 0.000000 -2.284929 -2.103770 13.724719 34.372329 3.303608 -2.400395 46.896246 -16.488386 -9.698898 -0.268715 31.524069 -4.989461 0.000000 0.000000 0.000000 
30.152174 34.990463 -23.125776 -179.951757 -3.308236 179.745089 2.692086 -0.816653 10.479023 -9.542130 -1.227809 -9.931682 12.323871 -0.891515 37.471869 -10.291189 -9.554446 2.187134 0.000000 0.000000 0.000000 5.607908 1.794904 9.090052 -5.876103 12.260610 -39.397054 -5.548023 7.652393 19.426472 13.818966 8.701677 19.531664 0.000000 0.000000 0.000000 6.540778 1.506856 1.587284 10.967067 3.715625 -7.312018 0.073181 -5.771796 13.497618 -0.053630 0.013094 -0.054336 -0.119453 -4.464365 17.247974 -3.794416 -4.625413 9.602931 0.000000 0.000000 0.000000 1.179214 -3.607638 13.454707 -5.525727 -9.004455 6.145831 -31.665778 13.641980 36.878145 -51.137100 -77.126366 53.008900 0.000000 0.000000 0.000000 -2.219278 -2.538522 13.867728 34.466248 3.248460 -2.218256 47.179696 -16.654928 -10.943330 -0.350516 31.183539 -5.300877 0.000000 0.000000 0.000000 
30.348326 35.176559 -24.477167 -179.912251 -5.243355 179.817038 3.117879 -0.524602 10.237452 -7.922962 -0.532037 -10.913066 12.378904 -0.672290 41.030767 -11.111423 -8.266051 7.602198 0.000000 0.000000 0.000000 5.673739 1.397008 9.477865 -5.709798 12.835274 -37.401795 -4.775030 7.786783 21.538028 12.310039 8.464413 16.193159 0.000000 0.000000 0.000000 6.634350 1.606009 1.814288 11.872514 3.692136 -8.189918 0.244378 -6.079887 13.587251 -0.051383 0.020364 -0.010238 0.061517 -4.622320 17.358289 -4.079968 -4.449061 9.892814 0.000000 0.000000 0.000000 1.355839 -3.777055 13.575271 -5.484618 -8.655358 6.127088 -32.086490 13.751432 37.671946 -48.547523 -76.566284 50.964491 0.000000 0.000000 0.000000 -2.036639 -2.656535 13.983941 34.439596 3.388089 -2.054080 47.188408 -16.518939 -11.908869 -0.587319 30.668434 -5.755288 0.000000 0.000000 0.000000 
30.510273 35.420109 -25.744146 -179.866857 -7.237320 179.744488 3.270345 -0.890875 10.212655 -6.547842 0.105146 -12.496421 12.966182 -0.065525 45.573140 -10.293250 -6.185624 12.037819 0.000000 0.000000 0.000000 5.822277 0.751734 9.710493 -4.964274 12.563915 -34.773501 -3.941427 7.274116 22.847948 10.234585 7.848646 12.763892 0.000000 0.000000 0.000000 6.731650 1.301372 2.104634 12.630488 3.853773 -8.890483 0.389948 -6.044122 13.623401 -0.042267 0.047446 -0.059430 0.155829 -4.710352 17.502230 -4.480135 -4.315328 10.224630 0.000000 0.000000 0.000000 1.508791 -3.858733 13.809295 -5.223208 -8.275917 6.007014 -32.427204 14.155320 38.254469 -46.355278 -76.115847 49.245251 0.000000 0.000000 0.000000 -1.974858 -2.718440 14.153569 34.300971 3.567649 -1.909401 47.193660 -16.334233 -12.216564 -0.632580 30.102481 -6.016801 0.000000 0.000000 0.000000 
30.640635 35.700489 -26.983082 -179.841613 -9.283020 179.733628 3.593274 -1.738553 9.993323 -5.499234 0.149722 -15.279620 13.189032 0.255663 50.807373 -8.368132 -4.076250 15.508371 0.000000 0.000000 0.000000 6.042415 -0.214702 9.663261 -4.223695 11.572512 -31.756391 -3.274035 5.252520 23.510809 9.119308 7.415694 10.251992 0.000000 0.000000 0.000000 6.843841 0.790089 2.099620 13.178339 4.277341 -9.474106 0.421850 -6.178487 13.676868 -0.065872 -0.044209 -0.040829 0.232338 -4.653328 17.461715 -4.925608 -4.166655 10.492175 0.000000 0.000000 0.000000 1.661423 -3.823769 13.890990 -4.828078 -7.761670 5.835776 -32.587519 14.767508 38.652611 -44.772413 -75.882862 48.063010 0.000000 0.000000 0.000000 -1.910939 -2.660869 14.172725 34.081954 3.967010 -1.720046 47.081426 -16.016947 -12.122065 -0.622834 29.666828 -6.195539 0.000000 0.000000 0.000000 
